<svg xmlns="http://www.w3.org/2000/svg" version="1.1" xmlns:xlink="http://www.w3.org/1999/xlink" xmlns:svgjs="http://svgjs.dev/svgjs" width="1500" height="1077" viewBox="0 0 1500 1077"><g transform="matrix(1,0,0,1,-0.6530189231932582,0.43603238866398897)"><svg viewBox="0 0 344 247" data-background-color="#efefef" preserveAspectRatio="xMidYMid meet" height="1077" width="1500" xmlns="http://www.w3.org/2000/svg" xmlns:xlink="http://www.w3.org/1999/xlink"><g id="tight-bounds" transform="matrix(1,0,0,1,0.14975900638566486,-0.09999999999999432)"><svg viewBox="0 0 343.70048198722867 247.2" height="247.2" width="343.70048198722867"><g><svg viewBox="0 0 395.52 284.47019752399723" height="247.2" width="343.70048198722867"><g transform="matrix(1,0,0,1,0,143.90890266122452)"><svg viewBox="0 0 395.52 140.5612948627727" height="140.5612948627727" width="395.52"><g id="textblocktransform"><svg viewBox="0 0 395.52 140.5612948627727" height="140.5612948627727" width="395.52" id="textblock"><g><svg viewBox="0 0 395.52 140.5612948627727" height="140.5612948627727" width="395.52"><g transform="matrix(1,0,0,1,0,0)"><svg width="395.52" viewBox="3 -39.65 142.09 50.5" height="140.5612948627727" data-palette-color="url(#8700667e-9e98-4843-949d-cf9dec96fee9)"></svg></g></svg></g></svg></g></svg></g><g transform="matrix(1,0,0,1,142.4004296215406,0)"><svg viewBox="0 0 110.71914075691878 110.72575441520058" height="110.72575441520058" width="110.71914075691878"><g><svg xmlns="http://www.w3.org/2000/svg" xmlns:xlink="http://www.w3.org/1999/xlink" version="1.1" x="0" y="0" viewBox="23.465249941387935 23.457 92.07050029306035 92.076" enable-background="new 0 0 139 139" xml:space="preserve" height="110.72575441520058" width="110.71914075691878" class="icon-icon-0" data-fill-palette-color="accent" id="icon-0"><path d="M113.138 92.452c3.198-3.201 3.197-8.409-0.003-11.609v-0.001c-1.398-1.396-3.179-2.183-5.007-2.358l3.239-3.24c1.806-1.805 2.801-4.205 2.801-6.758s-0.995-4.954-2.801-6.76c-1.805-1.805-4.205-2.799-6.758-2.799h-0.001c-2.554 0-4.954 0.995-6.759 2.801l-12.8 12.8L64.471 53.95l12.8-12.801c3.726-3.728 3.726-9.793 0-13.52-3.727-3.727-9.791-3.726-13.518 0l-3.238 3.238c-0.177-1.828-0.963-3.607-2.359-5.004-1.551-1.551-3.612-2.405-5.805-2.406-0.001 0-0.001 0-0.002 0-2.192 0-4.253 0.854-5.803 2.404l-4.825 4.824-6.625-6.625L24.064 35.093l6.625 6.625-4.825 4.824c-3.199 3.201-3.198 8.409 0.001 11.611 1.359 1.359 3.11 2.182 5 2.364l-3.233 3.233c-1.806 1.805-2.8 4.205-2.8 6.759s0.994 4.955 2.799 6.761c1.805 1.805 4.206 2.8 6.76 2.8 2.554 0 4.955-0.994 6.76-2.8l12.544-12.544 20.577 20.577L61.729 97.847h0c-1.805 1.806-2.799 4.207-2.8 6.761 0 2.555 0.995 4.955 2.8 6.759 1.863 1.863 4.312 2.795 6.759 2.795 2.448 0 4.896-0.932 6.761-2.795l3.232-3.232c0.182 1.889 1.006 3.64 2.365 4.999 1.602 1.6 3.704 2.399 5.808 2.399 2.102 0 4.203-0.799 5.803-2.398l4.824-4.824 6.625 6.625 11.031-11.031-6.626-6.627L113.138 92.452zM27.988 56.032c-2.031-2.032-2.032-5.338-0.002-7.369l6.945-6.945-6.625-6.625 6.789-6.789 6.625 6.625 6.947-6.945c0.983-0.983 2.291-1.525 3.681-1.525 0 0 0.001 0 0.001 0 1.392 0 2.7 0.543 3.684 1.527 2.03 2.03 2.029 5.335-0.001 7.365l-20.68 20.68c-0.984 0.984-2.293 1.526-3.684 1.526 0 0 0 0 0 0C30.278 57.557 28.971 57.016 27.988 56.032zM51.574 62.604L39.03 75.149c-1.239 1.238-2.887 1.921-4.639 1.921-1.753 0-3.4-0.683-4.638-1.921-1.239-1.239-1.921-2.887-1.921-4.64 0-1.752 0.683-3.398 1.921-4.638l36.122-36.121c1.279-1.278 2.958-1.917 4.638-1.917s3.359 0.639 4.638 1.917c2.557 2.558 2.557 6.72 0 9.277L58.481 55.697 51.574 62.604 51.574 62.604zM55.817 62.604l0.902-0.902 5.632-5.631 20.577 20.576-3.247 3.248-3.287 3.287L55.817 62.604zM73.127 109.245c-2.559 2.557-6.72 2.558-9.278-0.001-1.238-1.237-1.92-2.884-1.92-4.636 0-1.753 0.683-3.401 1.921-4.641l12.544-12.543h0.001l5.417-5.418 18.159-18.158c1.239-1.239 2.886-1.922 4.638-1.922 0.001 0 0.001 0 0.001 0 1.752 0 3.398 0.682 4.637 1.92 1.239 1.239 1.922 2.887 1.922 4.639 0 1.751-0.683 3.397-1.922 4.637L73.127 109.245zM110.694 103.903l-6.789 6.789-6.625-6.625-6.945 6.945c-2.031 2.031-5.337 2.028-7.368-0.003-0.984-0.982-1.525-2.29-1.525-3.681s0.543-2.699 1.527-3.684l20.68-20.68c1.016-1.016 2.35-1.523 3.684-1.523 1.333 0 2.667 0.508 3.682 1.521 2.03 2.031 2.031 5.336 0.002 7.367l-6.947 6.945L110.694 103.903z" fill="#f9744c" data-fill-palette-color="accent"></path></svg></g></svg></g><g></g></svg></g><defs></defs><mask id="91df9708-7b1d-47a3-ab49-8c2af470bb64"><g id="SvgjsG1879"><svg viewBox="0 0 343.70048198722867 247.2" height="247.2" width="343.70048198722867"><g><svg viewBox="0 0 395.52 284.47019752399723" height="247.2" width="343.70048198722867"><g transform="matrix(1,0,0,1,0,143.90890266122452)"><svg viewBox="0 0 395.52 140.5612948627727" height="140.5612948627727" width="395.52"><g id="SvgjsG1878"><svg viewBox="0 0 395.52 140.5612948627727" height="140.5612948627727" width="395.52" id="SvgjsSvg1877"><g><svg viewBox="0 0 395.52 140.5612948627727" height="140.5612948627727" width="395.52"><g transform="matrix(1,0,0,1,0,0)"><svg width="395.52" viewBox="3 -39.65 142.09 50.5" height="140.5612948627727" data-palette-color="url(#8700667e-9e98-4843-949d-cf9dec96fee9)"><path d="M3-34.55L9.35-34.55 9.35 0 3 0 3-34.55ZM19.1-34.55L25.55-34.55 16.15-18.9 26.3 0 19.3 0 9.6-18.45 19.1-34.55ZM47.65-13.85Q47.65-13.4 47.5-11.3L47.5-11.3 33.85-11.3Q34.05-7.2 35.27-5.58 36.5-3.95 38.75-3.95L38.75-3.95Q40.3-3.95 41.55-4.48 42.8-5 44.25-6.15L44.25-6.15 46.8-2.65Q43.3 0.75 38.4 0.75L38.4 0.75Q33.2 0.75 30.42-2.85 27.65-6.45 27.65-13L27.65-13Q27.65-19.55 30.3-23.35 32.95-27.15 37.8-27.15L37.8-27.15Q42.45-27.15 45.05-23.78 47.65-20.4 47.65-13.85L47.65-13.85ZM41.65-15.3L41.65-15.65Q41.65-19.4 40.75-21.13 39.85-22.85 37.85-22.85L37.85-22.85Q36-22.85 35.02-21.18 34.05-19.5 33.85-15.3L33.85-15.3 41.65-15.3ZM70.8-13.85Q70.8-13.4 70.65-11.3L70.65-11.3 57-11.3Q57.2-7.2 58.42-5.58 59.65-3.95 61.9-3.95L61.9-3.95Q63.45-3.95 64.7-4.48 65.95-5 67.4-6.15L67.4-6.15 69.95-2.65Q66.45 0.75 61.55 0.75L61.55 0.75Q56.35 0.75 53.57-2.85 50.8-6.45 50.8-13L50.8-13Q50.8-19.55 53.45-23.35 56.1-27.15 60.95-27.15L60.95-27.15Q65.59-27.15 68.2-23.78 70.8-20.4 70.8-13.85L70.8-13.85ZM64.8-15.3L64.8-15.65Q64.8-19.4 63.9-21.13 63-22.85 61-22.85L61-22.85Q59.15-22.85 58.17-21.18 57.2-19.5 57-15.3L57-15.3 64.8-15.3ZM87.29-27.15Q91.19-27.15 93.19-23.58 95.19-20 95.19-13.3L95.19-13.3Q95.19-6.8 92.92-3.03 90.64 0.75 86.59 0.75L86.59 0.75Q83.39 0.75 81.24-2.1L81.24-2.1 81.24 10.15 75.09 10.85 75.09-26.45 80.54-26.45 80.79-23.25Q82.09-25.25 83.69-26.2 85.29-27.15 87.29-27.15L87.29-27.15ZM84.94-3.95Q86.84-3.95 87.84-6.13 88.84-8.3 88.84-13.25L88.84-13.25Q88.84-18.45 87.99-20.5 87.14-22.55 85.34-22.55L85.34-22.55Q83.04-22.55 81.24-19.25L81.24-19.25 81.24-6.45Q82.84-3.95 84.94-3.95L84.94-3.95ZM106.29 0L99.94 0 99.94-34.55 116.64-34.55 115.94-29.8 106.29-29.8 106.29-19.25 114.69-19.25 114.69-14.5 106.29-14.5 106.29 0ZM119.94-26.45L126.09-26.45 126.09 0 119.94 0 119.94-26.45ZM122.99-39.65Q124.64-39.65 125.66-38.6 126.69-37.55 126.69-35.9L126.69-35.9Q126.69-34.3 125.66-33.25 124.64-32.2 122.99-32.2L122.99-32.2Q121.34-32.2 120.31-33.25 119.29-34.3 119.29-35.9L119.29-35.9Q119.29-37.55 120.31-38.6 121.34-39.65 122.99-39.65L122.99-39.65ZM142.94-5L145.09-1.2Q142.64 0.75 139.34 0.75L139.34 0.75Q135.89 0.75 134.09-1.23 132.29-3.2 132.29-6.6L132.29-6.6 132.29-22 129.19-22 129.19-26.45 132.29-26.45 132.29-32.3 138.44-33.05 138.44-26.45 143.44-26.45 142.84-22 138.44-22 138.44-6.6Q138.44-4.2 140.49-4.2L140.49-4.2Q141.14-4.2 141.64-4.38 142.14-4.55 142.94-5L142.94-5Z" opacity="1" transform="matrix(1,0,0,1,0,0)" fill="white" class="wordmark-text-0" id="SvgjsPath1876"></path></svg></g></svg></g></svg></g></svg></g><g transform="matrix(1,0,0,1,142.4004296215406,0)"><svg viewBox="0 0 110.71914075691878 110.72575441520058" height="110.72575441520058" width="110.71914075691878"><g><svg xmlns="http://www.w3.org/2000/svg" xmlns:xlink="http://www.w3.org/1999/xlink" version="1.1" x="0" y="0" viewBox="23.465249941387935 23.457 92.07050029306035 92.076" enable-background="new 0 0 139 139" xml:space="preserve" height="110.72575441520058" width="110.71914075691878" class="icon-icon-0" data-fill-palette-color="accent" id="SvgjsSvg1875"><path d="M113.138 92.452c3.198-3.201 3.197-8.409-0.003-11.609v-0.001c-1.398-1.396-3.179-2.183-5.007-2.358l3.239-3.24c1.806-1.805 2.801-4.205 2.801-6.758s-0.995-4.954-2.801-6.76c-1.805-1.805-4.205-2.799-6.758-2.799h-0.001c-2.554 0-4.954 0.995-6.759 2.801l-12.8 12.8L64.471 53.95l12.8-12.801c3.726-3.728 3.726-9.793 0-13.52-3.727-3.727-9.791-3.726-13.518 0l-3.238 3.238c-0.177-1.828-0.963-3.607-2.359-5.004-1.551-1.551-3.612-2.405-5.805-2.406-0.001 0-0.001 0-0.002 0-2.192 0-4.253 0.854-5.803 2.404l-4.825 4.824-6.625-6.625L24.064 35.093l6.625 6.625-4.825 4.824c-3.199 3.201-3.198 8.409 0.001 11.611 1.359 1.359 3.11 2.182 5 2.364l-3.233 3.233c-1.806 1.805-2.8 4.205-2.8 6.759s0.994 4.955 2.799 6.761c1.805 1.805 4.206 2.8 6.76 2.8 2.554 0 4.955-0.994 6.76-2.8l12.544-12.544 20.577 20.577L61.729 97.847h0c-1.805 1.806-2.799 4.207-2.8 6.761 0 2.555 0.995 4.955 2.8 6.759 1.863 1.863 4.312 2.795 6.759 2.795 2.448 0 4.896-0.932 6.761-2.795l3.232-3.232c0.182 1.889 1.006 3.64 2.365 4.999 1.602 1.6 3.704 2.399 5.808 2.399 2.102 0 4.203-0.799 5.803-2.398l4.824-4.824 6.625 6.625 11.031-11.031-6.626-6.627L113.138 92.452zM27.988 56.032c-2.031-2.032-2.032-5.338-0.002-7.369l6.945-6.945-6.625-6.625 6.789-6.789 6.625 6.625 6.947-6.945c0.983-0.983 2.291-1.525 3.681-1.525 0 0 0.001 0 0.001 0 1.392 0 2.7 0.543 3.684 1.527 2.03 2.03 2.029 5.335-0.001 7.365l-20.68 20.68c-0.984 0.984-2.293 1.526-3.684 1.526 0 0 0 0 0 0C30.278 57.557 28.971 57.016 27.988 56.032zM51.574 62.604L39.03 75.149c-1.239 1.238-2.887 1.921-4.639 1.921-1.753 0-3.4-0.683-4.638-1.921-1.239-1.239-1.921-2.887-1.921-4.64 0-1.752 0.683-3.398 1.921-4.638l36.122-36.121c1.279-1.278 2.958-1.917 4.638-1.917s3.359 0.639 4.638 1.917c2.557 2.558 2.557 6.72 0 9.277L58.481 55.697 51.574 62.604 51.574 62.604zM55.817 62.604l0.902-0.902 5.632-5.631 20.577 20.576-3.247 3.248-3.287 3.287L55.817 62.604zM73.127 109.245c-2.559 2.557-6.72 2.558-9.278-0.001-1.238-1.237-1.92-2.884-1.92-4.636 0-1.753 0.683-3.401 1.921-4.641l12.544-12.543h0.001l5.417-5.418 18.159-18.158c1.239-1.239 2.886-1.922 4.638-1.922 0.001 0 0.001 0 0.001 0 1.752 0 3.398 0.682 4.637 1.92 1.239 1.239 1.922 2.887 1.922 4.639 0 1.751-0.683 3.397-1.922 4.637L73.127 109.245zM110.694 103.903l-6.789 6.789-6.625-6.625-6.945 6.945c-2.031 2.031-5.337 2.028-7.368-0.003-0.984-0.982-1.525-2.29-1.525-3.681s0.543-2.699 1.527-3.684l20.68-20.68c1.016-1.016 2.35-1.523 3.684-1.523 1.333 0 2.667 0.508 3.682 1.521 2.03 2.031 2.031 5.336 0.002 7.367l-6.947 6.945L110.694 103.903z" fill="black"></path></svg></g></svg></g><g></g></svg></g><defs><mask></mask></defs></svg><rect width="343.70048198722867" height="247.2" fill="black" stroke="none" visibility="hidden"></rect></g></mask><linearGradient x1="0" x2="1" y1="0.5" y2="0.5" id="8700667e-9e98-4843-949d-cf9dec96fee9"><stop stop-color="#ffa62e" offset="0"></stop><stop stop-color="#f71b3d" offset="1"></stop></linearGradient><rect width="343.70048198722867" height="247.2" fill="url(#8700667e-9e98-4843-949d-cf9dec96fee9)" mask="url(#91df9708-7b1d-47a3-ab49-8c2af470bb64)" data-fill-palette-color="primary"></rect></svg><rect width="343.70048198722867" height="247.2" fill="none" stroke="none" visibility="hidden"></rect></g></svg></g></svg>