<svg xmlns="http://www.w3.org/2000/svg" version="1.1" xmlns:xlink="http://www.w3.org/1999/xlink" xmlns:svgjs="http://svgjs.dev/svgjs" width="1500" height="1500" viewBox="0 0 1500 1500"><rect width="1500" height="1500" fill="#ffffff"></rect><g transform="matrix(0.6666666666666666,0,0,0.6666666666666666,249.906680063215,240.41295546558706)"><svg viewBox="0 0 242 247" data-background-color="#efefef" preserveAspectRatio="xMidYMid meet" height="1530" width="1500" xmlns="http://www.w3.org/2000/svg" xmlns:xlink="http://www.w3.org/1999/xlink"><g id="tight-bounds" transform="matrix(1,0,0,1,0.022583424701963395,-0.09999999999999432)"><svg viewBox="0 0 241.95483315059607 247.2" height="247.2" width="241.95483315059607"><g><svg viewBox="0 0 395.52 404.0941969493331" height="247.2" width="241.95483315059607"><g transform="matrix(1,0,0,1,0,172.51734588893746)"><svg viewBox="0 0 395.52 231.5768510603956" height="231.5768510603956" width="395.52"><g id="textblocktransform"><svg viewBox="0 0 395.52 231.5768510603956" height="231.5768510603956" width="395.52" id="textblock"><g><svg viewBox="0 0 395.52 140.5612948627727" height="140.5612948627727" width="395.52"><g transform="matrix(1,0,0,1,0,0)"><svg width="395.52" viewBox="3 -39.65 142.09 50.5" height="140.5612948627727" data-palette-color="url(#17d2c0c8-e893-4810-a575-137e621fbe05)"></svg></g></svg></g><g transform="matrix(1,0,0,1,65.26079999999999,173.74444310879664)"><svg viewBox="0 0 264.9984 57.83240795159897" height="57.83240795159897" width="264.9984"><g transform="matrix(1,0,0,1,0,0)"><svg width="264.9984" viewBox="3 -39.65 231.37 50.5" height="57.83240795159897" data-palette-color="url(#4c1c6565-cee9-48c1-b93e-18b55760eb1e)"></svg></g></svg></g></svg></g></svg></g><g transform="matrix(1,0,0,1,128.0970624,0)"><svg viewBox="0 0 139.32587519999998 139.33419764291352" height="139.33419764291352" width="139.32587519999998"><g><svg xmlns="http://www.w3.org/2000/svg" xmlns:xlink="http://www.w3.org/1999/xlink" version="1.1" x="0" y="0" viewBox="23.465249941387935 23.457 92.07050029306035 92.076" enable-background="new 0 0 139 139" xml:space="preserve" height="139.33419764291352" width="139.32587519999998" class="icon-icon-0" data-fill-palette-color="accent" id="icon-0"><path d="M113.138 92.452c3.198-3.201 3.197-8.409-0.003-11.609v-0.001c-1.398-1.396-3.179-2.183-5.007-2.358l3.239-3.24c1.806-1.805 2.801-4.205 2.801-6.758s-0.995-4.954-2.801-6.76c-1.805-1.805-4.205-2.799-6.758-2.799h-0.001c-2.554 0-4.954 0.995-6.759 2.801l-12.8 12.8L64.471 53.95l12.8-12.801c3.726-3.728 3.726-9.793 0-13.52-3.727-3.727-9.791-3.726-13.518 0l-3.238 3.238c-0.177-1.828-0.963-3.607-2.359-5.004-1.551-1.551-3.612-2.405-5.805-2.406-0.001 0-0.001 0-0.002 0-2.192 0-4.253 0.854-5.803 2.404l-4.825 4.824-6.625-6.625L24.064 35.093l6.625 6.625-4.825 4.824c-3.199 3.201-3.198 8.409 0.001 11.611 1.359 1.359 3.11 2.182 5 2.364l-3.233 3.233c-1.806 1.805-2.8 4.205-2.8 6.759s0.994 4.955 2.799 6.761c1.805 1.805 4.206 2.8 6.76 2.8 2.554 0 4.955-0.994 6.76-2.8l12.544-12.544 20.577 20.577L61.729 97.847h0c-1.805 1.806-2.799 4.207-2.8 6.761 0 2.555 0.995 4.955 2.8 6.759 1.863 1.863 4.312 2.795 6.759 2.795 2.448 0 4.896-0.932 6.761-2.795l3.232-3.232c0.182 1.889 1.006 3.64 2.365 4.999 1.602 1.6 3.704 2.399 5.808 2.399 2.102 0 4.203-0.799 5.803-2.398l4.824-4.824 6.625 6.625 11.031-11.031-6.626-6.627L113.138 92.452zM27.988 56.032c-2.031-2.032-2.032-5.338-0.002-7.369l6.945-6.945-6.625-6.625 6.789-6.789 6.625 6.625 6.947-6.945c0.983-0.983 2.291-1.525 3.681-1.525 0 0 0.001 0 0.001 0 1.392 0 2.7 0.543 3.684 1.527 2.03 2.03 2.029 5.335-0.001 7.365l-20.68 20.68c-0.984 0.984-2.293 1.526-3.684 1.526 0 0 0 0 0 0C30.278 57.557 28.971 57.016 27.988 56.032zM51.574 62.604L39.03 75.149c-1.239 1.238-2.887 1.921-4.639 1.921-1.753 0-3.4-0.683-4.638-1.921-1.239-1.239-1.921-2.887-1.921-4.64 0-1.752 0.683-3.398 1.921-4.638l36.122-36.121c1.279-1.278 2.958-1.917 4.638-1.917s3.359 0.639 4.638 1.917c2.557 2.558 2.557 6.72 0 9.277L58.481 55.697 51.574 62.604 51.574 62.604zM55.817 62.604l0.902-0.902 5.632-5.631 20.577 20.576-3.247 3.248-3.287 3.287L55.817 62.604zM73.127 109.245c-2.559 2.557-6.72 2.558-9.278-0.001-1.238-1.237-1.92-2.884-1.92-4.636 0-1.753 0.683-3.401 1.921-4.641l12.544-12.543h0.001l5.417-5.418 18.159-18.158c1.239-1.239 2.886-1.922 4.638-1.922 0.001 0 0.001 0 0.001 0 1.752 0 3.398 0.682 4.637 1.92 1.239 1.239 1.922 2.887 1.922 4.639 0 1.751-0.683 3.397-1.922 4.637L73.127 109.245zM110.694 103.903l-6.789 6.789-6.625-6.625-6.945 6.945c-2.031 2.031-5.337 2.028-7.368-0.003-0.984-0.982-1.525-2.29-1.525-3.681s0.543-2.699 1.527-3.684l20.68-20.68c1.016-1.016 2.35-1.523 3.684-1.523 1.333 0 2.667 0.508 3.682 1.521 2.03 2.031 2.031 5.336 0.002 7.367l-6.947 6.945L110.694 103.903z" fill="#000000" data-fill-palette-color="accent"></path></svg></g></svg></g><g></g></svg></g><defs></defs><mask id="9d054d3b-30c1-4119-9cf8-948913cb03e9"><g id="SvgjsG1814"><svg viewBox="0 0 241.95483315059607 247.2" height="247.2" width="241.95483315059607"><g><svg viewBox="0 0 395.52 404.0941969493331" height="247.2" width="241.95483315059607"><g transform="matrix(1,0,0,1,0,172.51734588893746)"><svg viewBox="0 0 395.52 231.5768510603956" height="231.5768510603956" width="395.52"><g id="SvgjsG1813"><svg viewBox="0 0 395.52 231.5768510603956" height="231.5768510603956" width="395.52" id="SvgjsSvg1812"><g><svg viewBox="0 0 395.52 140.5612948627727" height="140.5612948627727" width="395.52"><g transform="matrix(1,0,0,1,0,0)"><svg width="395.52" viewBox="3 -39.65 142.09 50.5" height="140.5612948627727" data-palette-color="url(#17d2c0c8-e893-4810-a575-137e621fbe05)"><path d="M3-34.55L9.35-34.55 9.35 0 3 0 3-34.55ZM19.1-34.55L25.55-34.55 16.15-18.9 26.3 0 19.3 0 9.6-18.45 19.1-34.55ZM47.65-13.85Q47.65-13.4 47.5-11.3L47.5-11.3 33.85-11.3Q34.05-7.2 35.27-5.58 36.5-3.95 38.75-3.95L38.75-3.95Q40.3-3.95 41.55-4.48 42.8-5 44.25-6.15L44.25-6.15 46.8-2.65Q43.3 0.75 38.4 0.75L38.4 0.75Q33.2 0.75 30.42-2.85 27.65-6.45 27.65-13L27.65-13Q27.65-19.55 30.3-23.35 32.95-27.15 37.8-27.15L37.8-27.15Q42.45-27.15 45.05-23.78 47.65-20.4 47.65-13.85L47.65-13.85ZM41.65-15.3L41.65-15.65Q41.65-19.4 40.75-21.13 39.85-22.85 37.85-22.85L37.85-22.85Q36-22.85 35.02-21.18 34.05-19.5 33.85-15.3L33.85-15.3 41.65-15.3ZM70.8-13.85Q70.8-13.4 70.65-11.3L70.65-11.3 57-11.3Q57.2-7.2 58.42-5.58 59.65-3.95 61.9-3.95L61.9-3.95Q63.45-3.95 64.7-4.48 65.95-5 67.4-6.15L67.4-6.15 69.95-2.65Q66.45 0.75 61.55 0.75L61.55 0.75Q56.35 0.75 53.57-2.85 50.8-6.45 50.8-13L50.8-13Q50.8-19.55 53.45-23.35 56.1-27.15 60.95-27.15L60.95-27.15Q65.59-27.15 68.2-23.78 70.8-20.4 70.8-13.85L70.8-13.85ZM64.8-15.3L64.8-15.65Q64.8-19.4 63.9-21.13 63-22.85 61-22.85L61-22.85Q59.15-22.85 58.17-21.18 57.2-19.5 57-15.3L57-15.3 64.8-15.3ZM87.29-27.15Q91.19-27.15 93.19-23.58 95.19-20 95.19-13.3L95.19-13.3Q95.19-6.8 92.92-3.03 90.64 0.75 86.59 0.75L86.59 0.75Q83.39 0.75 81.24-2.1L81.24-2.1 81.24 10.15 75.09 10.85 75.09-26.45 80.54-26.45 80.79-23.25Q82.09-25.25 83.69-26.2 85.29-27.15 87.29-27.15L87.29-27.15ZM84.94-3.95Q86.84-3.95 87.84-6.13 88.84-8.3 88.84-13.25L88.84-13.25Q88.84-18.45 87.99-20.5 87.14-22.55 85.34-22.55L85.34-22.55Q83.04-22.55 81.24-19.25L81.24-19.25 81.24-6.45Q82.84-3.95 84.94-3.95L84.94-3.95ZM106.29 0L99.94 0 99.94-34.55 116.64-34.55 115.94-29.8 106.29-29.8 106.29-19.25 114.69-19.25 114.69-14.5 106.29-14.5 106.29 0ZM119.94-26.45L126.09-26.45 126.09 0 119.94 0 119.94-26.45ZM122.99-39.65Q124.64-39.65 125.66-38.6 126.69-37.55 126.69-35.9L126.69-35.9Q126.69-34.3 125.66-33.25 124.64-32.2 122.99-32.2L122.99-32.2Q121.34-32.2 120.31-33.25 119.29-34.3 119.29-35.9L119.29-35.9Q119.29-37.55 120.31-38.6 121.34-39.65 122.99-39.65L122.99-39.65ZM142.94-5L145.09-1.2Q142.64 0.75 139.34 0.75L139.34 0.75Q135.89 0.75 134.09-1.23 132.29-3.2 132.29-6.6L132.29-6.6 132.29-22 129.19-22 129.19-26.45 132.29-26.45 132.29-32.3 138.44-33.05 138.44-26.45 143.44-26.45 142.84-22 138.44-22 138.44-6.6Q138.44-4.2 140.49-4.2L140.49-4.2Q141.14-4.2 141.64-4.38 142.14-4.55 142.94-5L142.94-5Z" opacity="1" transform="matrix(1,0,0,1,0,0)" fill="white" class="wordmark-text-0" id="SvgjsPath1811"></path></svg></g></svg></g><g transform="matrix(1,0,0,1,65.26079999999999,173.74444310879664)"><svg viewBox="0 0 264.9984 57.83240795159897" height="57.83240795159897" width="264.9984"><g transform="matrix(1,0,0,1,0,0)"><svg width="264.9984" viewBox="3 -39.65 231.37 50.5" height="57.83240795159897" data-palette-color="url(#4c1c6565-cee9-48c1-b93e-18b55760eb1e)"><path d="M3-34.55L9.35-34.55 9.35-5.25 20.5-5.25 19.8 0 3 0 3-34.55ZM23.7-26.45L29.85-26.45 29.85 0 23.7 0 23.7-26.45ZM26.75-39.65Q28.4-39.65 29.42-38.6 30.45-37.55 30.45-35.9L30.45-35.9Q30.45-34.3 29.42-33.25 28.4-32.2 26.75-32.2L26.75-32.2Q25.1-32.2 24.07-33.25 23.05-34.3 23.05-35.9L23.05-35.9Q23.05-37.55 24.07-38.6 25.1-39.65 26.75-39.65L26.75-39.65ZM47.95-26.45L54-26.45 47.1 0 39.85 0 32.75-26.45 39.1-26.45 43.45-4.95 47.95-26.45ZM75.74-13.85Q75.74-13.4 75.59-11.3L75.59-11.3 61.94-11.3Q62.14-7.2 63.37-5.58 64.59-3.95 66.84-3.95L66.84-3.95Q68.39-3.95 69.64-4.48 70.89-5 72.34-6.15L72.34-6.15 74.89-2.65Q71.39 0.75 66.49 0.75L66.49 0.75Q61.29 0.75 58.52-2.85 55.74-6.45 55.74-13L55.74-13Q55.74-19.55 58.39-23.35 61.04-27.15 65.89-27.15L65.89-27.15Q70.54-27.15 73.14-23.78 75.74-20.4 75.74-13.85L75.74-13.85ZM69.74-15.3L69.74-15.65Q69.74-19.4 68.84-21.13 67.94-22.85 65.94-22.85L65.94-22.85Q64.09-22.85 63.12-21.18 62.14-19.5 61.94-15.3L61.94-15.3 69.74-15.3ZM111.74 0L105.34 0 105.34-15.5 96.39-15.5 96.39 0 90.04 0 90.04-34.55 96.39-34.55 96.39-20.6 105.34-20.6 105.34-34.55 111.74-34.55 111.74 0ZM136.39-13.85Q136.39-13.4 136.24-11.3L136.24-11.3 122.59-11.3Q122.79-7.2 124.01-5.58 125.24-3.95 127.49-3.95L127.49-3.95Q129.04-3.95 130.29-4.48 131.54-5 132.99-6.15L132.99-6.15 135.54-2.65Q132.04 0.75 127.14 0.75L127.14 0.75Q121.94 0.75 119.16-2.85 116.39-6.45 116.39-13L116.39-13Q116.39-19.55 119.04-23.35 121.69-27.15 126.54-27.15L126.54-27.15Q131.19-27.15 133.79-23.78 136.39-20.4 136.39-13.85L136.39-13.85ZM130.39-15.3L130.39-15.65Q130.39-19.4 129.49-21.13 128.59-22.85 126.59-22.85L126.59-22.85Q124.74-22.85 123.76-21.18 122.79-19.5 122.59-15.3L122.59-15.3 130.39-15.3ZM157.58-6.4Q157.58-5.1 157.93-4.48 158.28-3.85 159.08-3.45L159.08-3.45 157.83 0.65Q155.78 0.4 154.56-0.45 153.33-1.3 152.73-3.05L152.73-3.05Q150.43 0.75 146.28 0.75L146.28 0.75Q142.98 0.75 141.03-1.48 139.08-3.7 139.08-7.4L139.08-7.4Q139.08-11.7 141.76-13.95 144.43-16.2 149.53-16.2L149.53-16.2 151.58-16.2 151.58-18.05Q151.58-20.55 150.71-21.58 149.83-22.6 147.88-22.6L147.88-22.6Q145.53-22.6 142.03-21.3L142.03-21.3 140.63-25.3Q142.63-26.2 144.78-26.68 146.93-27.15 148.88-27.15L148.88-27.15Q157.58-27.15 157.58-18.35L157.58-18.35 157.58-6.4ZM147.93-3.7Q150.33-3.7 151.58-7L151.58-7 151.58-12.55 150.13-12.55Q147.58-12.55 146.41-11.4 145.23-10.25 145.23-7.85L145.23-7.85Q145.23-5.8 145.93-4.75 146.63-3.7 147.93-3.7L147.93-3.7ZM168.98 0.75Q166.28 0.75 164.71-0.93 163.13-2.6 163.13-5.4L163.13-5.4 163.13-37.05 169.28-37.7 169.28-5.65Q169.28-5 169.58-4.6 169.88-4.2 170.48-4.2L170.48-4.2Q170.83-4.2 171.16-4.3 171.48-4.4 171.58-4.4L171.58-4.4 172.78-0.2Q171.08 0.75 168.98 0.75L168.98 0.75ZM186.98-5L189.13-1.2Q186.68 0.75 183.38 0.75L183.38 0.75Q179.93 0.75 178.13-1.23 176.33-3.2 176.33-6.6L176.33-6.6 176.33-22 173.23-22 173.23-26.45 176.33-26.45 176.33-32.3 182.48-33.05 182.48-26.45 187.48-26.45 186.88-22 182.48-22 182.48-6.6Q182.48-4.2 184.53-4.2L184.53-4.2Q185.18-4.2 185.68-4.38 186.18-4.55 186.98-5L186.98-5ZM204.03-27.15Q206.88-27.15 208.53-25.1 210.18-23.05 210.18-19.6L210.18-19.6 210.18 0 204.03 0 204.03-18.9Q204.03-20.8 203.5-21.63 202.98-22.45 201.98-22.45L201.98-22.45Q199.88-22.45 197.83-18.5L197.83-18.5 197.83 0 191.68 0 191.68-37 197.83-37.65 197.83-23.3Q199.08-25.25 200.55-26.2 202.03-27.15 204.03-27.15L204.03-27.15ZM234.37-26.45L227.37 0.1Q226.07 4.9 223.17 7.65 220.27 10.4 215.42 10.85L215.42 10.85 214.72 6.5Q217.87 5.85 219.45 4.42 221.02 3 221.92 0L221.92 0 219.62 0 212.92-26.45 219.17-26.45 223.57-4.1 228.27-26.45 234.37-26.45Z" opacity="1" transform="matrix(1,0,0,1,0,0)" fill="black" class="slogan-text-1" id="SvgjsPath1810"></path></svg></g></svg></g></svg></g></svg></g><g transform="matrix(1,0,0,1,128.0970624,0)"><svg viewBox="0 0 139.32587519999998 139.33419764291352" height="139.33419764291352" width="139.32587519999998"><g><svg xmlns="http://www.w3.org/2000/svg" xmlns:xlink="http://www.w3.org/1999/xlink" version="1.1" x="0" y="0" viewBox="23.465249941387935 23.457 92.07050029306035 92.076" enable-background="new 0 0 139 139" xml:space="preserve" height="139.33419764291352" width="139.32587519999998" class="icon-icon-0" data-fill-palette-color="accent" id="SvgjsSvg1809"><path d="M113.138 92.452c3.198-3.201 3.197-8.409-0.003-11.609v-0.001c-1.398-1.396-3.179-2.183-5.007-2.358l3.239-3.24c1.806-1.805 2.801-4.205 2.801-6.758s-0.995-4.954-2.801-6.76c-1.805-1.805-4.205-2.799-6.758-2.799h-0.001c-2.554 0-4.954 0.995-6.759 2.801l-12.8 12.8L64.471 53.95l12.8-12.801c3.726-3.728 3.726-9.793 0-13.52-3.727-3.727-9.791-3.726-13.518 0l-3.238 3.238c-0.177-1.828-0.963-3.607-2.359-5.004-1.551-1.551-3.612-2.405-5.805-2.406-0.001 0-0.001 0-0.002 0-2.192 0-4.253 0.854-5.803 2.404l-4.825 4.824-6.625-6.625L24.064 35.093l6.625 6.625-4.825 4.824c-3.199 3.201-3.198 8.409 0.001 11.611 1.359 1.359 3.11 2.182 5 2.364l-3.233 3.233c-1.806 1.805-2.8 4.205-2.8 6.759s0.994 4.955 2.799 6.761c1.805 1.805 4.206 2.8 6.76 2.8 2.554 0 4.955-0.994 6.76-2.8l12.544-12.544 20.577 20.577L61.729 97.847h0c-1.805 1.806-2.799 4.207-2.8 6.761 0 2.555 0.995 4.955 2.8 6.759 1.863 1.863 4.312 2.795 6.759 2.795 2.448 0 4.896-0.932 6.761-2.795l3.232-3.232c0.182 1.889 1.006 3.64 2.365 4.999 1.602 1.6 3.704 2.399 5.808 2.399 2.102 0 4.203-0.799 5.803-2.398l4.824-4.824 6.625 6.625 11.031-11.031-6.626-6.627L113.138 92.452zM27.988 56.032c-2.031-2.032-2.032-5.338-0.002-7.369l6.945-6.945-6.625-6.625 6.789-6.789 6.625 6.625 6.947-6.945c0.983-0.983 2.291-1.525 3.681-1.525 0 0 0.001 0 0.001 0 1.392 0 2.7 0.543 3.684 1.527 2.03 2.03 2.029 5.335-0.001 7.365l-20.68 20.68c-0.984 0.984-2.293 1.526-3.684 1.526 0 0 0 0 0 0C30.278 57.557 28.971 57.016 27.988 56.032zM51.574 62.604L39.03 75.149c-1.239 1.238-2.887 1.921-4.639 1.921-1.753 0-3.4-0.683-4.638-1.921-1.239-1.239-1.921-2.887-1.921-4.64 0-1.752 0.683-3.398 1.921-4.638l36.122-36.121c1.279-1.278 2.958-1.917 4.638-1.917s3.359 0.639 4.638 1.917c2.557 2.558 2.557 6.72 0 9.277L58.481 55.697 51.574 62.604 51.574 62.604zM55.817 62.604l0.902-0.902 5.632-5.631 20.577 20.576-3.247 3.248-3.287 3.287L55.817 62.604zM73.127 109.245c-2.559 2.557-6.72 2.558-9.278-0.001-1.238-1.237-1.92-2.884-1.92-4.636 0-1.753 0.683-3.401 1.921-4.641l12.544-12.543h0.001l5.417-5.418 18.159-18.158c1.239-1.239 2.886-1.922 4.638-1.922 0.001 0 0.001 0 0.001 0 1.752 0 3.398 0.682 4.637 1.92 1.239 1.239 1.922 2.887 1.922 4.639 0 1.751-0.683 3.397-1.922 4.637L73.127 109.245zM110.694 103.903l-6.789 6.789-6.625-6.625-6.945 6.945c-2.031 2.031-5.337 2.028-7.368-0.003-0.984-0.982-1.525-2.29-1.525-3.681s0.543-2.699 1.527-3.684l20.68-20.68c1.016-1.016 2.35-1.523 3.684-1.523 1.333 0 2.667 0.508 3.682 1.521 2.03 2.031 2.031 5.336 0.002 7.367l-6.947 6.945L110.694 103.903z" fill="black"></path></svg></g></svg></g><g></g></svg></g><defs><mask></mask></defs></svg><rect width="241.95483315059607" height="247.2" fill="black" stroke="none" visibility="hidden"></rect></g></mask><linearGradient x1="0" x2="1" y1="0.5" y2="0.5" id="17d2c0c8-e893-4810-a575-137e621fbe05"><stop stop-color="#ffa62e" offset="0"></stop><stop stop-color="#f71b3d" offset="1"></stop></linearGradient><rect width="241.95483315059607" height="247.2" fill="#000000" mask="url(#9d054d3b-30c1-4119-9cf8-948913cb03e9)" data-fill-palette-color="primary"></rect><mask id="6044ac52-12a8-41ed-b54b-a5eb17cf77ab"><g id="SvgjsG1825"><svg viewBox="0 0 241.95483315059607 247.2" height="247.2" width="241.95483315059607"><g><svg viewBox="0 0 395.52 404.0941969493331" height="247.2" width="241.95483315059607"><g transform="matrix(1,0,0,1,0,172.51734588893746)"><svg viewBox="0 0 395.52 231.5768510603956" height="231.5768510603956" width="395.52"><g id="SvgjsG1824"><svg viewBox="0 0 395.52 231.5768510603956" height="231.5768510603956" width="395.52" id="SvgjsSvg1823"><g><svg viewBox="0 0 395.52 140.5612948627727" height="140.5612948627727" width="395.52"><g transform="matrix(1,0,0,1,0,0)"><svg width="395.52" viewBox="3 -39.65 142.09 50.5" height="140.5612948627727" data-palette-color="url(#17d2c0c8-e893-4810-a575-137e621fbe05)"></svg></g></svg></g><g transform="matrix(1,0,0,1,65.26079999999999,173.74444310879664)"><svg viewBox="0 0 264.9984 57.83240795159897" height="57.83240795159897" width="264.9984"><g transform="matrix(1,0,0,1,0,0)"><svg width="264.9984" viewBox="3 -39.65 231.37 50.5" height="57.83240795159897" data-palette-color="url(#4c1c6565-cee9-48c1-b93e-18b55760eb1e)"><path d="M3-34.55L9.35-34.55 9.35-5.25 20.5-5.25 19.8 0 3 0 3-34.55ZM23.7-26.45L29.85-26.45 29.85 0 23.7 0 23.7-26.45ZM26.75-39.65Q28.4-39.65 29.42-38.6 30.45-37.55 30.45-35.9L30.45-35.9Q30.45-34.3 29.42-33.25 28.4-32.2 26.75-32.2L26.75-32.2Q25.1-32.2 24.07-33.25 23.05-34.3 23.05-35.9L23.05-35.9Q23.05-37.55 24.07-38.6 25.1-39.65 26.75-39.65L26.75-39.65ZM47.95-26.45L54-26.45 47.1 0 39.85 0 32.75-26.45 39.1-26.45 43.45-4.95 47.95-26.45ZM75.74-13.85Q75.74-13.4 75.59-11.3L75.59-11.3 61.94-11.3Q62.14-7.2 63.37-5.58 64.59-3.95 66.84-3.95L66.84-3.95Q68.39-3.95 69.64-4.48 70.89-5 72.34-6.15L72.34-6.15 74.89-2.65Q71.39 0.75 66.49 0.75L66.49 0.75Q61.29 0.75 58.52-2.85 55.74-6.45 55.74-13L55.74-13Q55.74-19.55 58.39-23.35 61.04-27.15 65.89-27.15L65.89-27.15Q70.54-27.15 73.14-23.78 75.74-20.4 75.74-13.85L75.74-13.85ZM69.74-15.3L69.74-15.65Q69.74-19.4 68.84-21.13 67.94-22.85 65.94-22.85L65.94-22.85Q64.09-22.85 63.12-21.18 62.14-19.5 61.94-15.3L61.94-15.3 69.74-15.3ZM111.74 0L105.34 0 105.34-15.5 96.39-15.5 96.39 0 90.04 0 90.04-34.55 96.39-34.55 96.39-20.6 105.34-20.6 105.34-34.55 111.74-34.55 111.74 0ZM136.39-13.85Q136.39-13.4 136.24-11.3L136.24-11.3 122.59-11.3Q122.79-7.2 124.01-5.58 125.24-3.95 127.49-3.95L127.49-3.95Q129.04-3.95 130.29-4.48 131.54-5 132.99-6.15L132.99-6.15 135.54-2.65Q132.04 0.75 127.14 0.75L127.14 0.75Q121.94 0.75 119.16-2.85 116.39-6.45 116.39-13L116.39-13Q116.39-19.55 119.04-23.35 121.69-27.15 126.54-27.15L126.54-27.15Q131.19-27.15 133.79-23.78 136.39-20.4 136.39-13.85L136.39-13.85ZM130.39-15.3L130.39-15.65Q130.39-19.4 129.49-21.13 128.59-22.85 126.59-22.85L126.59-22.85Q124.74-22.85 123.76-21.18 122.79-19.5 122.59-15.3L122.59-15.3 130.39-15.3ZM157.58-6.4Q157.58-5.1 157.93-4.48 158.28-3.85 159.08-3.45L159.08-3.45 157.83 0.65Q155.78 0.4 154.56-0.45 153.33-1.3 152.73-3.05L152.73-3.05Q150.43 0.75 146.28 0.75L146.28 0.75Q142.98 0.75 141.03-1.48 139.08-3.7 139.08-7.4L139.08-7.4Q139.08-11.7 141.76-13.95 144.43-16.2 149.53-16.2L149.53-16.2 151.58-16.2 151.58-18.05Q151.58-20.55 150.71-21.58 149.83-22.6 147.88-22.6L147.88-22.6Q145.53-22.6 142.03-21.3L142.03-21.3 140.63-25.3Q142.63-26.2 144.78-26.68 146.93-27.15 148.88-27.15L148.88-27.15Q157.58-27.15 157.58-18.35L157.58-18.35 157.58-6.4ZM147.93-3.7Q150.33-3.7 151.58-7L151.58-7 151.58-12.55 150.13-12.55Q147.58-12.55 146.41-11.4 145.23-10.25 145.23-7.85L145.23-7.85Q145.23-5.8 145.93-4.75 146.63-3.7 147.93-3.7L147.93-3.7ZM168.98 0.75Q166.28 0.75 164.71-0.93 163.13-2.6 163.13-5.4L163.13-5.4 163.13-37.05 169.28-37.7 169.28-5.65Q169.28-5 169.58-4.6 169.88-4.2 170.48-4.2L170.48-4.2Q170.83-4.2 171.16-4.3 171.48-4.4 171.58-4.4L171.58-4.4 172.78-0.2Q171.08 0.75 168.98 0.75L168.98 0.75ZM186.98-5L189.13-1.2Q186.68 0.75 183.38 0.75L183.38 0.75Q179.93 0.75 178.13-1.23 176.33-3.2 176.33-6.6L176.33-6.6 176.33-22 173.23-22 173.23-26.45 176.33-26.45 176.33-32.3 182.48-33.05 182.48-26.45 187.48-26.45 186.88-22 182.48-22 182.48-6.6Q182.48-4.2 184.53-4.2L184.53-4.2Q185.18-4.2 185.68-4.38 186.18-4.55 186.98-5L186.98-5ZM204.03-27.15Q206.88-27.15 208.53-25.1 210.18-23.05 210.18-19.6L210.18-19.6 210.18 0 204.03 0 204.03-18.9Q204.03-20.8 203.5-21.63 202.98-22.45 201.98-22.45L201.98-22.45Q199.88-22.45 197.83-18.5L197.83-18.5 197.83 0 191.68 0 191.68-37 197.83-37.65 197.83-23.3Q199.08-25.25 200.55-26.2 202.03-27.15 204.03-27.15L204.03-27.15ZM234.37-26.45L227.37 0.1Q226.07 4.9 223.17 7.65 220.27 10.4 215.42 10.85L215.42 10.85 214.72 6.5Q217.87 5.85 219.45 4.42 221.02 3 221.92 0L221.92 0 219.62 0 212.92-26.45 219.17-26.45 223.57-4.1 228.27-26.45 234.37-26.45Z" opacity="1" transform="matrix(1,0,0,1,0,0)" fill="white" class="slogan-text-1" id="SvgjsPath1822"></path></svg></g></svg></g></svg></g></svg></g><g transform="matrix(1,0,0,1,128.0970624,0)"><svg viewBox="0 0 139.32587519999998 139.33419764291352" height="139.33419764291352" width="139.32587519999998"><g><svg xmlns="http://www.w3.org/2000/svg" xmlns:xlink="http://www.w3.org/1999/xlink" version="1.1" x="0" y="0" viewBox="23.465249941387935 23.457 92.07050029306035 92.076" enable-background="new 0 0 139 139" xml:space="preserve" height="139.33419764291352" width="139.32587519999998" class="icon-icon-0" data-fill-palette-color="accent" id="SvgjsSvg1821"><path d="M113.138 92.452c3.198-3.201 3.197-8.409-0.003-11.609v-0.001c-1.398-1.396-3.179-2.183-5.007-2.358l3.239-3.24c1.806-1.805 2.801-4.205 2.801-6.758s-0.995-4.954-2.801-6.76c-1.805-1.805-4.205-2.799-6.758-2.799h-0.001c-2.554 0-4.954 0.995-6.759 2.801l-12.8 12.8L64.471 53.95l12.8-12.801c3.726-3.728 3.726-9.793 0-13.52-3.727-3.727-9.791-3.726-13.518 0l-3.238 3.238c-0.177-1.828-0.963-3.607-2.359-5.004-1.551-1.551-3.612-2.405-5.805-2.406-0.001 0-0.001 0-0.002 0-2.192 0-4.253 0.854-5.803 2.404l-4.825 4.824-6.625-6.625L24.064 35.093l6.625 6.625-4.825 4.824c-3.199 3.201-3.198 8.409 0.001 11.611 1.359 1.359 3.11 2.182 5 2.364l-3.233 3.233c-1.806 1.805-2.8 4.205-2.8 6.759s0.994 4.955 2.799 6.761c1.805 1.805 4.206 2.8 6.76 2.8 2.554 0 4.955-0.994 6.76-2.8l12.544-12.544 20.577 20.577L61.729 97.847h0c-1.805 1.806-2.799 4.207-2.8 6.761 0 2.555 0.995 4.955 2.8 6.759 1.863 1.863 4.312 2.795 6.759 2.795 2.448 0 4.896-0.932 6.761-2.795l3.232-3.232c0.182 1.889 1.006 3.64 2.365 4.999 1.602 1.6 3.704 2.399 5.808 2.399 2.102 0 4.203-0.799 5.803-2.398l4.824-4.824 6.625 6.625 11.031-11.031-6.626-6.627L113.138 92.452zM27.988 56.032c-2.031-2.032-2.032-5.338-0.002-7.369l6.945-6.945-6.625-6.625 6.789-6.789 6.625 6.625 6.947-6.945c0.983-0.983 2.291-1.525 3.681-1.525 0 0 0.001 0 0.001 0 1.392 0 2.7 0.543 3.684 1.527 2.03 2.03 2.029 5.335-0.001 7.365l-20.68 20.68c-0.984 0.984-2.293 1.526-3.684 1.526 0 0 0 0 0 0C30.278 57.557 28.971 57.016 27.988 56.032zM51.574 62.604L39.03 75.149c-1.239 1.238-2.887 1.921-4.639 1.921-1.753 0-3.4-0.683-4.638-1.921-1.239-1.239-1.921-2.887-1.921-4.64 0-1.752 0.683-3.398 1.921-4.638l36.122-36.121c1.279-1.278 2.958-1.917 4.638-1.917s3.359 0.639 4.638 1.917c2.557 2.558 2.557 6.72 0 9.277L58.481 55.697 51.574 62.604 51.574 62.604zM55.817 62.604l0.902-0.902 5.632-5.631 20.577 20.576-3.247 3.248-3.287 3.287L55.817 62.604zM73.127 109.245c-2.559 2.557-6.72 2.558-9.278-0.001-1.238-1.237-1.92-2.884-1.92-4.636 0-1.753 0.683-3.401 1.921-4.641l12.544-12.543h0.001l5.417-5.418 18.159-18.158c1.239-1.239 2.886-1.922 4.638-1.922 0.001 0 0.001 0 0.001 0 1.752 0 3.398 0.682 4.637 1.92 1.239 1.239 1.922 2.887 1.922 4.639 0 1.751-0.683 3.397-1.922 4.637L73.127 109.245zM110.694 103.903l-6.789 6.789-6.625-6.625-6.945 6.945c-2.031 2.031-5.337 2.028-7.368-0.003-0.984-0.982-1.525-2.29-1.525-3.681s0.543-2.699 1.527-3.684l20.68-20.68c1.016-1.016 2.35-1.523 3.684-1.523 1.333 0 2.667 0.508 3.682 1.521 2.03 2.031 2.031 5.336 0.002 7.367l-6.947 6.945L110.694 103.903z" fill="black"></path></svg></g></svg></g><g></g></svg></g><defs><mask></mask></defs><mask><g id="SvgjsG1820"><svg viewBox="0 0 241.95483315059607 247.2" height="247.2" width="241.95483315059607"><g><svg viewBox="0 0 395.52 404.0941969493331" height="247.2" width="241.95483315059607"><g transform="matrix(1,0,0,1,0,172.51734588893746)"><svg viewBox="0 0 395.52 231.5768510603956" height="231.5768510603956" width="395.52"><g id="SvgjsG1819"><svg viewBox="0 0 395.52 231.5768510603956" height="231.5768510603956" width="395.52" id="SvgjsSvg1818"><g><svg viewBox="0 0 395.52 140.5612948627727" height="140.5612948627727" width="395.52"><g transform="matrix(1,0,0,1,0,0)"><svg width="395.52" viewBox="3 -39.65 142.09 50.5" height="140.5612948627727" data-palette-color="url(#17d2c0c8-e893-4810-a575-137e621fbe05)"><path d="M3-34.55L9.35-34.55 9.35 0 3 0 3-34.55ZM19.1-34.55L25.55-34.55 16.15-18.9 26.3 0 19.3 0 9.6-18.45 19.1-34.55ZM47.65-13.85Q47.65-13.4 47.5-11.3L47.5-11.3 33.85-11.3Q34.05-7.2 35.27-5.58 36.5-3.95 38.75-3.95L38.75-3.95Q40.3-3.95 41.55-4.48 42.8-5 44.25-6.15L44.25-6.15 46.8-2.65Q43.3 0.75 38.4 0.75L38.4 0.75Q33.2 0.75 30.42-2.85 27.65-6.45 27.65-13L27.65-13Q27.65-19.55 30.3-23.35 32.95-27.15 37.8-27.15L37.8-27.15Q42.45-27.15 45.05-23.78 47.65-20.4 47.65-13.85L47.65-13.85ZM41.65-15.3L41.65-15.65Q41.65-19.4 40.75-21.13 39.85-22.85 37.85-22.85L37.85-22.85Q36-22.85 35.02-21.18 34.05-19.5 33.85-15.3L33.85-15.3 41.65-15.3ZM70.8-13.85Q70.8-13.4 70.65-11.3L70.65-11.3 57-11.3Q57.2-7.2 58.42-5.58 59.65-3.95 61.9-3.95L61.9-3.95Q63.45-3.95 64.7-4.48 65.95-5 67.4-6.15L67.4-6.15 69.95-2.65Q66.45 0.75 61.55 0.75L61.55 0.75Q56.35 0.75 53.57-2.85 50.8-6.45 50.8-13L50.8-13Q50.8-19.55 53.45-23.35 56.1-27.15 60.95-27.15L60.95-27.15Q65.59-27.15 68.2-23.78 70.8-20.4 70.8-13.85L70.8-13.85ZM64.8-15.3L64.8-15.65Q64.8-19.4 63.9-21.13 63-22.85 61-22.85L61-22.85Q59.15-22.85 58.17-21.18 57.2-19.5 57-15.3L57-15.3 64.8-15.3ZM87.29-27.15Q91.19-27.15 93.19-23.58 95.19-20 95.19-13.3L95.19-13.3Q95.19-6.8 92.92-3.03 90.64 0.75 86.59 0.75L86.59 0.75Q83.39 0.75 81.24-2.1L81.24-2.1 81.24 10.15 75.09 10.85 75.09-26.45 80.54-26.45 80.79-23.25Q82.09-25.25 83.69-26.2 85.29-27.15 87.29-27.15L87.29-27.15ZM84.94-3.95Q86.84-3.95 87.84-6.13 88.84-8.3 88.84-13.25L88.84-13.25Q88.84-18.45 87.99-20.5 87.14-22.55 85.34-22.55L85.34-22.55Q83.04-22.55 81.24-19.25L81.24-19.25 81.24-6.45Q82.84-3.95 84.94-3.95L84.94-3.95ZM106.29 0L99.94 0 99.94-34.55 116.64-34.55 115.94-29.8 106.29-29.8 106.29-19.25 114.69-19.25 114.69-14.5 106.29-14.5 106.29 0ZM119.94-26.45L126.09-26.45 126.09 0 119.94 0 119.94-26.45ZM122.99-39.65Q124.64-39.65 125.66-38.6 126.69-37.55 126.69-35.9L126.69-35.9Q126.69-34.3 125.66-33.25 124.64-32.2 122.99-32.2L122.99-32.2Q121.34-32.2 120.31-33.25 119.29-34.3 119.29-35.9L119.29-35.9Q119.29-37.55 120.31-38.6 121.34-39.65 122.99-39.65L122.99-39.65ZM142.94-5L145.09-1.2Q142.64 0.75 139.34 0.75L139.34 0.75Q135.89 0.75 134.09-1.23 132.29-3.2 132.29-6.6L132.29-6.6 132.29-22 129.19-22 129.19-26.45 132.29-26.45 132.29-32.3 138.44-33.05 138.44-26.45 143.44-26.45 142.84-22 138.44-22 138.44-6.6Q138.44-4.2 140.49-4.2L140.49-4.2Q141.14-4.2 141.64-4.38 142.14-4.55 142.94-5L142.94-5Z" opacity="1" transform="matrix(1,0,0,1,0,0)" fill="black" class="wordmark-text-0" id="SvgjsPath1817"></path></svg></g></svg></g><g transform="matrix(1,0,0,1,65.26079999999999,173.74444310879664)"><svg viewBox="0 0 264.9984 57.83240795159897" height="57.83240795159897" width="264.9984"><g transform="matrix(1,0,0,1,0,0)"><svg width="264.9984" viewBox="3 -39.65 231.37 50.5" height="57.83240795159897" data-palette-color="url(#4c1c6565-cee9-48c1-b93e-18b55760eb1e)"><path d="M3-34.55L9.35-34.55 9.35-5.25 20.5-5.25 19.8 0 3 0 3-34.55ZM23.7-26.45L29.85-26.45 29.85 0 23.7 0 23.7-26.45ZM26.75-39.65Q28.4-39.65 29.42-38.6 30.45-37.55 30.45-35.9L30.45-35.9Q30.45-34.3 29.42-33.25 28.4-32.2 26.75-32.2L26.75-32.2Q25.1-32.2 24.07-33.25 23.05-34.3 23.05-35.9L23.05-35.9Q23.05-37.55 24.07-38.6 25.1-39.65 26.75-39.65L26.75-39.65ZM47.95-26.45L54-26.45 47.1 0 39.85 0 32.75-26.45 39.1-26.45 43.45-4.95 47.95-26.45ZM75.74-13.85Q75.74-13.4 75.59-11.3L75.59-11.3 61.94-11.3Q62.14-7.2 63.37-5.58 64.59-3.95 66.84-3.95L66.84-3.95Q68.39-3.95 69.64-4.48 70.89-5 72.34-6.15L72.34-6.15 74.89-2.65Q71.39 0.75 66.49 0.75L66.49 0.75Q61.29 0.75 58.52-2.85 55.74-6.45 55.74-13L55.74-13Q55.74-19.55 58.39-23.35 61.04-27.15 65.89-27.15L65.89-27.15Q70.54-27.15 73.14-23.78 75.74-20.4 75.74-13.85L75.74-13.85ZM69.74-15.3L69.74-15.65Q69.74-19.4 68.84-21.13 67.94-22.85 65.94-22.85L65.94-22.85Q64.09-22.85 63.12-21.18 62.14-19.5 61.94-15.3L61.94-15.3 69.74-15.3ZM111.74 0L105.34 0 105.34-15.5 96.39-15.5 96.39 0 90.04 0 90.04-34.55 96.39-34.55 96.39-20.6 105.34-20.6 105.34-34.55 111.74-34.55 111.74 0ZM136.39-13.85Q136.39-13.4 136.24-11.3L136.24-11.3 122.59-11.3Q122.79-7.2 124.01-5.58 125.24-3.95 127.49-3.95L127.49-3.95Q129.04-3.95 130.29-4.48 131.54-5 132.99-6.15L132.99-6.15 135.54-2.65Q132.04 0.75 127.14 0.75L127.14 0.75Q121.94 0.75 119.16-2.85 116.39-6.45 116.39-13L116.39-13Q116.39-19.55 119.04-23.35 121.69-27.15 126.54-27.15L126.54-27.15Q131.19-27.15 133.79-23.78 136.39-20.4 136.39-13.85L136.39-13.85ZM130.39-15.3L130.39-15.65Q130.39-19.4 129.49-21.13 128.59-22.85 126.59-22.85L126.59-22.85Q124.74-22.85 123.76-21.18 122.79-19.5 122.59-15.3L122.59-15.3 130.39-15.3ZM157.58-6.4Q157.58-5.1 157.93-4.48 158.28-3.85 159.08-3.45L159.08-3.45 157.83 0.65Q155.78 0.4 154.56-0.45 153.33-1.3 152.73-3.05L152.73-3.05Q150.43 0.75 146.28 0.75L146.28 0.75Q142.98 0.75 141.03-1.48 139.08-3.7 139.08-7.4L139.08-7.4Q139.08-11.7 141.76-13.95 144.43-16.2 149.53-16.2L149.53-16.2 151.58-16.2 151.58-18.05Q151.58-20.55 150.71-21.58 149.83-22.6 147.88-22.6L147.88-22.6Q145.53-22.6 142.03-21.3L142.03-21.3 140.63-25.3Q142.63-26.2 144.78-26.68 146.93-27.15 148.88-27.15L148.88-27.15Q157.58-27.15 157.58-18.35L157.58-18.35 157.58-6.4ZM147.93-3.7Q150.33-3.7 151.58-7L151.58-7 151.58-12.55 150.13-12.55Q147.58-12.55 146.41-11.4 145.23-10.25 145.23-7.85L145.23-7.85Q145.23-5.8 145.93-4.75 146.63-3.7 147.93-3.7L147.93-3.7ZM168.98 0.75Q166.28 0.75 164.71-0.93 163.13-2.6 163.13-5.4L163.13-5.4 163.13-37.05 169.28-37.7 169.28-5.65Q169.28-5 169.58-4.6 169.88-4.2 170.48-4.2L170.48-4.2Q170.83-4.2 171.16-4.3 171.48-4.4 171.58-4.4L171.58-4.4 172.78-0.2Q171.08 0.75 168.98 0.75L168.98 0.75ZM186.98-5L189.13-1.2Q186.68 0.75 183.38 0.75L183.38 0.75Q179.93 0.75 178.13-1.23 176.33-3.2 176.33-6.6L176.33-6.6 176.33-22 173.23-22 173.23-26.45 176.33-26.45 176.33-32.3 182.48-33.05 182.48-26.45 187.48-26.45 186.88-22 182.48-22 182.48-6.6Q182.48-4.2 184.53-4.2L184.53-4.2Q185.18-4.2 185.68-4.38 186.18-4.55 186.98-5L186.98-5ZM204.03-27.15Q206.88-27.15 208.53-25.1 210.18-23.05 210.18-19.6L210.18-19.6 210.18 0 204.03 0 204.03-18.9Q204.03-20.8 203.5-21.63 202.98-22.45 201.98-22.45L201.98-22.45Q199.88-22.45 197.83-18.5L197.83-18.5 197.83 0 191.68 0 191.68-37 197.83-37.65 197.83-23.3Q199.08-25.25 200.55-26.2 202.03-27.15 204.03-27.15L204.03-27.15ZM234.37-26.45L227.37 0.1Q226.07 4.9 223.17 7.65 220.27 10.4 215.42 10.85L215.42 10.85 214.72 6.5Q217.87 5.85 219.45 4.42 221.02 3 221.92 0L221.92 0 219.62 0 212.92-26.45 219.17-26.45 223.57-4.1 228.27-26.45 234.37-26.45Z" opacity="1" transform="matrix(1,0,0,1,0,0)" fill="black" class="slogan-text-1" id="SvgjsPath1816"></path></svg></g></svg></g></svg></g></svg></g><g transform="matrix(1,0,0,1,128.0970624,0)"><svg viewBox="0 0 139.32587519999998 139.33419764291352" height="139.33419764291352" width="139.32587519999998"><g><svg xmlns="http://www.w3.org/2000/svg" xmlns:xlink="http://www.w3.org/1999/xlink" version="1.1" x="0" y="0" viewBox="23.465249941387935 23.457 92.07050029306035 92.076" enable-background="new 0 0 139 139" xml:space="preserve" height="139.33419764291352" width="139.32587519999998" class="icon-icon-0" data-fill-palette-color="accent" id="SvgjsSvg1815"><path d="M113.138 92.452c3.198-3.201 3.197-8.409-0.003-11.609v-0.001c-1.398-1.396-3.179-2.183-5.007-2.358l3.239-3.24c1.806-1.805 2.801-4.205 2.801-6.758s-0.995-4.954-2.801-6.76c-1.805-1.805-4.205-2.799-6.758-2.799h-0.001c-2.554 0-4.954 0.995-6.759 2.801l-12.8 12.8L64.471 53.95l12.8-12.801c3.726-3.728 3.726-9.793 0-13.52-3.727-3.727-9.791-3.726-13.518 0l-3.238 3.238c-0.177-1.828-0.963-3.607-2.359-5.004-1.551-1.551-3.612-2.405-5.805-2.406-0.001 0-0.001 0-0.002 0-2.192 0-4.253 0.854-5.803 2.404l-4.825 4.824-6.625-6.625L24.064 35.093l6.625 6.625-4.825 4.824c-3.199 3.201-3.198 8.409 0.001 11.611 1.359 1.359 3.11 2.182 5 2.364l-3.233 3.233c-1.806 1.805-2.8 4.205-2.8 6.759s0.994 4.955 2.799 6.761c1.805 1.805 4.206 2.8 6.76 2.8 2.554 0 4.955-0.994 6.76-2.8l12.544-12.544 20.577 20.577L61.729 97.847h0c-1.805 1.806-2.799 4.207-2.8 6.761 0 2.555 0.995 4.955 2.8 6.759 1.863 1.863 4.312 2.795 6.759 2.795 2.448 0 4.896-0.932 6.761-2.795l3.232-3.232c0.182 1.889 1.006 3.64 2.365 4.999 1.602 1.6 3.704 2.399 5.808 2.399 2.102 0 4.203-0.799 5.803-2.398l4.824-4.824 6.625 6.625 11.031-11.031-6.626-6.627L113.138 92.452zM27.988 56.032c-2.031-2.032-2.032-5.338-0.002-7.369l6.945-6.945-6.625-6.625 6.789-6.789 6.625 6.625 6.947-6.945c0.983-0.983 2.291-1.525 3.681-1.525 0 0 0.001 0 0.001 0 1.392 0 2.7 0.543 3.684 1.527 2.03 2.03 2.029 5.335-0.001 7.365l-20.68 20.68c-0.984 0.984-2.293 1.526-3.684 1.526 0 0 0 0 0 0C30.278 57.557 28.971 57.016 27.988 56.032zM51.574 62.604L39.03 75.149c-1.239 1.238-2.887 1.921-4.639 1.921-1.753 0-3.4-0.683-4.638-1.921-1.239-1.239-1.921-2.887-1.921-4.64 0-1.752 0.683-3.398 1.921-4.638l36.122-36.121c1.279-1.278 2.958-1.917 4.638-1.917s3.359 0.639 4.638 1.917c2.557 2.558 2.557 6.72 0 9.277L58.481 55.697 51.574 62.604 51.574 62.604zM55.817 62.604l0.902-0.902 5.632-5.631 20.577 20.576-3.247 3.248-3.287 3.287L55.817 62.604zM73.127 109.245c-2.559 2.557-6.72 2.558-9.278-0.001-1.238-1.237-1.92-2.884-1.92-4.636 0-1.753 0.683-3.401 1.921-4.641l12.544-12.543h0.001l5.417-5.418 18.159-18.158c1.239-1.239 2.886-1.922 4.638-1.922 0.001 0 0.001 0 0.001 0 1.752 0 3.398 0.682 4.637 1.92 1.239 1.239 1.922 2.887 1.922 4.639 0 1.751-0.683 3.397-1.922 4.637L73.127 109.245zM110.694 103.903l-6.789 6.789-6.625-6.625-6.945 6.945c-2.031 2.031-5.337 2.028-7.368-0.003-0.984-0.982-1.525-2.29-1.525-3.681s0.543-2.699 1.527-3.684l20.68-20.68c1.016-1.016 2.35-1.523 3.684-1.523 1.333 0 2.667 0.508 3.682 1.521 2.03 2.031 2.031 5.336 0.002 7.367l-6.947 6.945L110.694 103.903z" fill="black"></path></svg></g></svg></g><g></g></svg></g><defs><mask></mask></defs></svg><rect width="241.95483315059607" height="247.2" fill="black" stroke="none" visibility="hidden"></rect></g></mask></svg><rect width="241.95483315059607" height="247.2" fill="black" stroke="none" visibility="hidden"></rect></g></mask><linearGradient x1="0" x2="1" y1="0.578" y2="0.595" id="4c1c6565-cee9-48c1-b93e-18b55760eb1e"><stop stop-color="#dede50" offset="0"></stop><stop stop-color="#559c49" offset="1"></stop></linearGradient><rect width="241.95483315059607" height="247.2" fill="#000000" mask="url(#6044ac52-12a8-41ed-b54b-a5eb17cf77ab)" data-fill-palette-color="secondary"></rect></svg><rect width="241.95483315059607" height="247.2" fill="none" stroke="none" visibility="hidden"></rect></g></svg></g></svg>